<svg width="181" height="35" viewBox="0 0 181 35" fill="none" xmlns="http://www.w3.org/2000/svg">
<g clip-path="url(#clip0_385_1191)">
<path d="M45.582 28.7225V6.09717H54.2955C56.347 6.09717 58.0421 6.40961 59.381 7.0345C60.7199 7.63785 61.7132 8.49976 62.3611 9.62026C63.0089 10.7192 63.3328 12.0228 63.3328 13.5312C63.3328 15.0396 63.0089 16.354 62.3611 17.4745C61.7132 18.5734 60.7199 19.4353 59.381 20.0602C58.0421 20.6636 56.347 20.9652 54.2955 20.9652H50.4084V28.7225H45.582ZM50.4084 16.9573H53.8096C55.5372 16.9573 56.7465 16.6664 57.4375 16.0846C58.1501 15.5028 58.5064 14.6517 58.5064 13.5312C58.5064 12.4323 58.1501 11.5919 57.4375 11.0101C56.7465 10.4068 55.5372 10.1051 53.8096 10.1051H50.4084V16.9573ZM66.1521 28.7225V11.5919H70.0392V14.1453C70.2767 13.6497 70.6006 13.1864 71.0109 12.7555C71.4212 12.3245 71.9287 11.9582 72.5333 11.6565C73.138 11.3549 73.8074 11.204 74.5416 11.204C74.9519 11.204 75.2974 11.2256 75.5782 11.2687C75.8805 11.3118 76.0748 11.3549 76.1612 11.398V15.1796C75.9453 15.0934 75.6646 15.018 75.319 14.9534C74.9951 14.8672 74.5524 14.8241 73.991 14.8241C73.1272 14.8241 72.4254 15.0072 71.8855 15.3736C71.3672 15.7399 70.9893 16.2247 70.7518 16.828C70.5142 17.4098 70.3955 18.0455 70.3955 18.735V28.7225H66.1521ZM85.875 29.1104C84.3202 29.1104 82.8842 28.7979 81.5669 28.173C80.2712 27.5266 79.2347 26.5569 78.4573 25.2641C77.6799 23.9496 77.2912 22.3012 77.2912 20.3188V19.6724C77.2912 17.7761 77.6583 16.2031 78.3925 14.9534C79.1483 13.7036 80.1525 12.7663 81.4049 12.1414C82.6574 11.5165 84.0395 11.204 85.5511 11.204C88.2504 11.204 90.3019 11.9151 91.7056 13.3373C93.1092 14.7594 93.811 16.8173 93.811 19.5108V21.3208H81.6641C81.7073 22.3335 81.9232 23.1631 82.3119 23.8096C82.7222 24.4345 83.2405 24.8977 83.8667 25.1994C84.493 25.4795 85.1624 25.6196 85.875 25.6196C86.9764 25.6196 87.8077 25.458 88.3692 25.1348C88.9307 24.8115 89.3302 24.3375 89.5677 23.7126H93.4871C93.1416 25.5011 92.2886 26.8478 90.9282 27.7528C89.5677 28.6579 87.8833 29.1104 85.875 29.1104ZM85.7131 14.6948C85.0436 14.6948 84.3958 14.8025 83.7696 15.018C83.1433 15.2335 82.6466 15.6214 82.2795 16.1816C81.9124 16.7203 81.7073 17.4422 81.6641 18.3472H89.6649C89.6433 17.3775 89.4489 16.6341 89.0818 16.117C88.7363 15.5783 88.272 15.2119 87.689 15.018C87.1059 14.8025 86.4473 14.6948 85.7131 14.6948ZM104.179 29.1104C102.603 29.1104 101.177 28.7871 99.9033 28.1407C98.6292 27.4727 97.6143 26.4923 96.8585 25.1994C96.1242 23.885 95.7571 22.2581 95.7571 20.3188V19.6724C95.7571 17.8192 96.1458 16.2678 96.9232 15.018C97.7006 13.7682 98.7264 12.8201 100 12.1737C101.275 11.5272 102.667 11.204 104.179 11.204C105.799 11.204 107.17 11.4734 108.293 12.0121C109.416 12.5508 110.28 13.2942 110.884 14.2423C111.51 15.1904 111.867 16.2355 111.953 17.3775H107.613C107.44 16.6018 107.084 15.9877 106.544 15.5352C106.025 15.0611 105.237 14.8241 104.179 14.8241C103.445 14.8241 102.765 14.9965 102.138 15.3412C101.534 15.686 101.037 16.2139 100.648 16.925C100.281 17.6361 100.098 18.5519 100.098 19.6724V20.3188C100.098 21.5255 100.27 22.5167 100.616 23.2924C100.983 24.0466 101.469 24.6068 102.074 24.9732C102.7 25.3179 103.402 25.4903 104.179 25.4903C105.021 25.4903 105.745 25.2748 106.349 24.8439C106.976 24.3914 107.397 23.7557 107.613 22.9369H111.953C111.824 24.1651 111.413 25.2533 110.722 26.2014C110.031 27.1495 109.113 27.8714 107.969 28.367C106.846 28.8626 105.583 29.1104 104.179 29.1104ZM119.677 29.1104C118.446 29.1104 117.399 28.8841 116.535 28.4316C115.671 27.9575 115.013 27.3111 114.559 26.4923C114.106 25.6735 113.879 24.7469 113.879 23.7126C113.879 21.9888 114.386 20.6959 115.401 19.834C116.438 18.9721 117.982 18.5411 120.033 18.5411H125.151V17.7331C125.151 16.6126 124.892 15.8261 124.374 15.3736C123.877 14.921 123.078 14.6948 121.977 14.6948C121.005 14.6948 120.303 14.8672 119.871 15.2119C119.439 15.5352 119.191 15.9446 119.126 16.4402H114.851C114.915 15.449 115.228 14.5655 115.79 13.7898C116.373 12.9925 117.194 12.3676 118.252 11.9151C119.331 11.4411 120.627 11.204 122.139 11.204C123.607 11.204 124.881 11.4195 125.961 11.8505C127.062 12.2814 127.915 12.9817 128.52 13.9514C129.124 14.8995 129.427 16.1816 129.427 17.7977V24.359C129.427 25.2641 129.437 26.0613 129.459 26.7509C129.502 27.4188 129.567 28.0761 129.653 28.7225H125.669C125.583 28.2484 125.529 27.8929 125.508 27.6559C125.508 27.3973 125.508 27.0202 125.508 26.5246C125.054 27.2141 124.341 27.8175 123.37 28.3346C122.398 28.8518 121.167 29.1104 119.677 29.1104ZM121.005 25.8135C121.696 25.8135 122.355 25.695 122.981 25.458C123.629 25.1994 124.147 24.8115 124.536 24.2944C124.946 23.7557 125.151 23.0769 125.151 22.2581V21.4501H120.843C120.022 21.4501 119.375 21.644 118.9 22.0319C118.446 22.3982 118.219 22.9046 118.219 23.551C118.219 24.2405 118.457 24.79 118.932 25.1994C119.407 25.6088 120.098 25.8135 121.005 25.8135ZM132.867 28.7225V11.5919H136.754V14.113C137.186 13.3373 137.855 12.6585 138.762 12.0767C139.669 11.4949 140.911 11.204 142.487 11.204C144.582 11.204 146.137 11.7643 147.152 12.8848C148.188 14.0053 148.706 15.6214 148.706 17.7331V28.7225H144.431V18.7027C144.431 17.4314 144.161 16.4725 143.621 15.8261C143.103 15.1581 142.206 14.8241 140.932 14.8241C140.025 14.8241 139.291 15.0072 138.73 15.3736C138.168 15.7399 137.758 16.2139 137.499 16.7957C137.24 17.3775 137.11 18.0132 137.11 18.7027V28.7225H132.867ZM159.119 28.9164C157.78 28.9164 156.679 28.7333 155.815 28.367C154.951 27.9791 154.314 27.365 153.904 26.5246C153.515 25.6842 153.321 24.5961 153.321 23.2601V15.1473H151.021V11.5919H153.321V7.71326H157.564V11.5919H161.71V15.1473H157.564V22.5813C157.564 23.551 157.737 24.2513 158.083 24.6823C158.45 25.0917 159.119 25.2964 160.091 25.2964C160.739 25.2964 161.387 25.2641 162.034 25.1994V28.7548C161.624 28.7979 161.192 28.8302 160.739 28.8518C160.307 28.8949 159.767 28.9164 159.119 28.9164ZM172.416 29.1104C170.861 29.1104 169.425 28.7979 168.108 28.173C166.812 27.5266 165.776 26.5462 164.998 25.2317C164.221 23.9173 163.832 22.2797 163.832 20.3188V19.6724C163.832 17.8192 164.221 16.2678 164.998 15.018C165.776 13.7467 166.812 12.7986 168.108 12.1737C169.425 11.5272 170.861 11.204 172.416 11.204C173.992 11.204 175.428 11.5272 176.724 12.1737C178.02 12.7986 179.056 13.7467 179.834 15.018C180.611 16.2678 181 17.8192 181 19.6724V20.3188C181 22.2366 180.611 23.8527 179.834 25.1671C179.056 26.4815 178.02 27.4727 176.724 28.1407C175.428 28.7871 173.992 29.1104 172.416 29.1104ZM172.416 25.4903C173.237 25.4903 173.96 25.3071 174.586 24.9408C175.234 24.553 175.742 23.9712 176.109 23.1955C176.476 22.4197 176.659 21.4608 176.659 20.3188V19.6724C176.659 18.6165 176.476 17.7331 176.109 17.022C175.742 16.3109 175.234 15.7722 174.586 15.4059C173.96 15.018 173.237 14.8241 172.416 14.8241C171.595 14.8241 170.861 15.018 170.213 15.4059C169.587 15.7722 169.09 16.3109 168.723 17.022C168.356 17.7331 168.173 18.6165 168.173 19.6724V20.3188C168.173 21.4824 168.356 22.452 168.723 23.2278C169.09 23.982 169.587 24.553 170.213 24.9408C170.861 25.3071 171.595 25.4903 172.416 25.4903Z" fill="black"/>
<path fill-rule="evenodd" clip-rule="evenodd" d="M1.90534 3.44796C2.53671 3.44796 3.04854 2.93613 3.04854 2.30475C3.04854 1.67338 2.53671 1.16155 1.90534 1.16155C1.27397 1.16155 0.762136 1.67338 0.762136 2.30475C0.762136 2.93613 1.27397 3.44796 1.90534 3.44796ZM1.90534 4.21009C2.95763 4.21009 3.81068 3.35704 3.81068 2.30475C3.81068 1.25246 2.95763 0.399414 1.90534 0.399414C0.853049 0.399414 0 1.25246 0 2.30475C0 3.35704 0.853049 4.21009 1.90534 4.21009Z" fill="#39ABFF"/>
<path fill-rule="evenodd" clip-rule="evenodd" d="M1.90534 8.49728C2.53671 8.49728 3.04854 7.98545 3.04854 7.35407C3.04854 6.7227 2.53671 6.21087 1.90534 6.21087C1.27397 6.21087 0.762136 6.7227 0.762136 7.35407C0.762136 7.98545 1.27397 8.49728 1.90534 8.49728ZM1.90534 9.25941C2.95763 9.25941 3.81068 8.40636 3.81068 7.35407C3.81068 6.30178 2.95763 5.44873 1.90534 5.44873C0.853049 5.44873 0 6.30178 0 7.35407C0 8.40636 0.853049 9.25941 1.90534 9.25941Z" fill="#39ABFF"/>
<path fill-rule="evenodd" clip-rule="evenodd" d="M1.90534 13.5462C2.53671 13.5462 3.04854 13.0343 3.04854 12.403C3.04854 11.7716 2.53671 11.2598 1.90534 11.2598C1.27397 11.2598 0.762136 11.7716 0.762136 12.403C0.762136 13.0343 1.27397 13.5462 1.90534 13.5462ZM1.90534 14.3083C2.95763 14.3083 3.81068 13.4552 3.81068 12.403C3.81068 11.3507 2.95763 10.4976 1.90534 10.4976C0.853049 10.4976 0 11.3507 0 12.403C0 13.4552 0.853049 14.3083 1.90534 14.3083Z" fill="#39ABFF"/>
<path fill-rule="evenodd" clip-rule="evenodd" d="M1.90534 18.6907C2.53671 18.6907 3.04854 18.1788 3.04854 17.5475C3.04854 16.9161 2.53671 16.4043 1.90534 16.4043C1.27397 16.4043 0.762136 16.9161 0.762136 17.5475C0.762136 18.1788 1.27397 18.6907 1.90534 18.6907ZM1.90534 19.4528C2.95763 19.4528 3.81068 18.5998 3.81068 17.5475C3.81068 16.4952 2.95763 15.6421 1.90534 15.6421C0.853049 15.6421 0 16.4952 0 17.5475C0 18.5998 0.853049 19.4528 1.90534 19.4528Z" fill="#39ABFF"/>
<path fill-rule="evenodd" clip-rule="evenodd" d="M1.90534 23.7399C2.53671 23.7399 3.04854 23.2281 3.04854 22.5967C3.04854 21.9653 2.53671 21.4535 1.90534 21.4535C1.27397 21.4535 0.762136 21.9653 0.762136 22.5967C0.762136 23.2281 1.27397 23.7399 1.90534 23.7399ZM1.90534 24.5021C2.95763 24.5021 3.81068 23.649 3.81068 22.5967C3.81068 21.5444 2.95763 20.6914 1.90534 20.6914C0.853049 20.6914 0 21.5444 0 22.5967C0 23.649 0.853049 24.5021 1.90534 24.5021Z" fill="#39ABFF"/>
<path fill-rule="evenodd" clip-rule="evenodd" d="M1.90534 28.7888C2.53671 28.7888 3.04854 28.2769 3.04854 27.6456C3.04854 27.0142 2.53671 26.5024 1.90534 26.5024C1.27397 26.5024 0.762136 27.0142 0.762136 27.6456C0.762136 28.2769 1.27397 28.7888 1.90534 28.7888ZM1.90534 29.5509C2.95763 29.5509 3.81068 28.6979 3.81068 27.6456C3.81068 26.5933 2.95763 25.7402 1.90534 25.7402C0.853049 25.7402 0 26.5933 0 27.6456C0 28.6979 0.853049 29.5509 1.90534 29.5509Z" fill="#39ABFF"/>
<path fill-rule="evenodd" clip-rule="evenodd" d="M1.90534 33.8381C2.53671 33.8381 3.04854 33.3263 3.04854 32.6949C3.04854 32.0635 2.53671 31.5517 1.90534 31.5517C1.27397 31.5517 0.762136 32.0635 0.762136 32.6949C0.762136 33.3263 1.27397 33.8381 1.90534 33.8381ZM1.90534 34.6003C2.95763 34.6003 3.81068 33.7472 3.81068 32.6949C3.81068 31.6426 2.95763 30.7896 1.90534 30.7896C0.853049 30.7896 0 31.6426 0 32.6949C0 33.7472 0.853049 34.6003 1.90534 34.6003Z" fill="#39ABFF"/>
<path fill-rule="evenodd" clip-rule="evenodd" d="M7.04987 3.44796C7.68124 3.44796 8.19307 2.93613 8.19307 2.30475C8.19307 1.67338 7.68124 1.16155 7.04987 1.16155C6.41849 1.16155 5.90666 1.67338 5.90666 2.30475C5.90666 2.93613 6.41849 3.44796 7.04987 3.44796ZM7.04987 4.21009C8.10216 4.21009 8.95521 3.35704 8.95521 2.30475C8.95521 1.25246 8.10216 0.399414 7.04987 0.399414C5.99758 0.399414 5.14453 1.25246 5.14453 2.30475C5.14453 3.35704 5.99758 4.21009 7.04987 4.21009Z" fill="#39ABFF"/>
<path fill-rule="evenodd" clip-rule="evenodd" d="M7.04987 8.49728C7.68124 8.49728 8.19307 7.98545 8.19307 7.35407C8.19307 6.7227 7.68124 6.21087 7.04987 6.21087C6.41849 6.21087 5.90666 6.7227 5.90666 7.35407C5.90666 7.98545 6.41849 8.49728 7.04987 8.49728ZM7.04987 9.25941C8.10216 9.25941 8.95521 8.40636 8.95521 7.35407C8.95521 6.30178 8.10216 5.44873 7.04987 5.44873C5.99758 5.44873 5.14453 6.30178 5.14453 7.35407C5.14453 8.40636 5.99758 9.25941 7.04987 9.25941Z" fill="#39ABFF"/>
<path fill-rule="evenodd" clip-rule="evenodd" d="M7.04987 13.5462C7.68124 13.5462 8.19307 13.0343 8.19307 12.403C8.19307 11.7716 7.68124 11.2598 7.04987 11.2598C6.41849 11.2598 5.90666 11.7716 5.90666 12.403C5.90666 13.0343 6.41849 13.5462 7.04987 13.5462ZM7.04987 14.3083C8.10216 14.3083 8.95521 13.4552 8.95521 12.403C8.95521 11.3507 8.10216 10.4976 7.04987 10.4976C5.99758 10.4976 5.14453 11.3507 5.14453 12.403C5.14453 13.4552 5.99758 14.3083 7.04987 14.3083Z" fill="#39ABFF"/>
<path fill-rule="evenodd" clip-rule="evenodd" d="M7.04987 18.6907C7.68124 18.6907 8.19307 18.1788 8.19307 17.5475C8.19307 16.9161 7.68124 16.4043 7.04987 16.4043C6.41849 16.4043 5.90666 16.9161 5.90666 17.5475C5.90666 18.1788 6.41849 18.6907 7.04987 18.6907ZM7.04987 19.4528C8.10216 19.4528 8.95521 18.5998 8.95521 17.5475C8.95521 16.4952 8.10216 15.6421 7.04987 15.6421C5.99758 15.6421 5.14453 16.4952 5.14453 17.5475C5.14453 18.5998 5.99758 19.4528 7.04987 19.4528Z" fill="#39ABFF"/>
<path fill-rule="evenodd" clip-rule="evenodd" d="M7.04987 23.7399C7.68124 23.7399 8.19307 23.2281 8.19307 22.5967C8.19307 21.9653 7.68124 21.4535 7.04987 21.4535C6.41849 21.4535 5.90666 21.9653 5.90666 22.5967C5.90666 23.2281 6.41849 23.7399 7.04987 23.7399ZM7.04987 24.5021C8.10216 24.5021 8.95521 23.649 8.95521 22.5967C8.95521 21.5444 8.10216 20.6914 7.04987 20.6914C5.99758 20.6914 5.14453 21.5444 5.14453 22.5967C5.14453 23.649 5.99758 24.5021 7.04987 24.5021Z" fill="#39ABFF"/>
<path fill-rule="evenodd" clip-rule="evenodd" d="M7.04987 28.7888C7.68124 28.7888 8.19307 28.2769 8.19307 27.6456C8.19307 27.0142 7.68124 26.5024 7.04987 26.5024C6.41849 26.5024 5.90666 27.0142 5.90666 27.6456C5.90666 28.2769 6.41849 28.7888 7.04987 28.7888ZM7.04987 29.5509C8.10216 29.5509 8.95521 28.6979 8.95521 27.6456C8.95521 26.5933 8.10216 25.7402 7.04987 25.7402C5.99758 25.7402 5.14453 26.5933 5.14453 27.6456C5.14453 28.6979 5.99758 29.5509 7.04987 29.5509Z" fill="#39ABFF"/>
<path fill-rule="evenodd" clip-rule="evenodd" d="M7.04987 33.8381C7.68124 33.8381 8.19307 33.3263 8.19307 32.6949C8.19307 32.0635 7.68124 31.5517 7.04987 31.5517C6.41849 31.5517 5.90666 32.0635 5.90666 32.6949C5.90666 33.3263 6.41849 33.8381 7.04987 33.8381ZM7.04987 34.6003C8.10216 34.6003 8.95521 33.7472 8.95521 32.6949C8.95521 31.6426 8.10216 30.7896 7.04987 30.7896C5.99758 30.7896 5.14453 31.6426 5.14453 32.6949C5.14453 33.7472 5.99758 34.6003 7.04987 34.6003Z" fill="#39ABFF"/>
<path fill-rule="evenodd" clip-rule="evenodd" d="M12.1945 3.44796C12.8258 3.44796 13.3377 2.93613 13.3377 2.30475C13.3377 1.67338 12.8258 1.16155 12.1945 1.16155C11.5631 1.16155 11.0513 1.67338 11.0513 2.30475C11.0513 2.93613 11.5631 3.44796 12.1945 3.44796ZM12.1945 4.21009C13.2468 4.21009 14.0998 3.35704 14.0998 2.30475C14.0998 1.25246 13.2468 0.399414 12.1945 0.399414C11.1422 0.399414 10.2891 1.25246 10.2891 2.30475C10.2891 3.35704 11.1422 4.21009 12.1945 4.21009Z" fill="#39ABFF"/>
<path fill-rule="evenodd" clip-rule="evenodd" d="M12.1945 8.49728C12.8258 8.49728 13.3377 7.98545 13.3377 7.35407C13.3377 6.7227 12.8258 6.21087 12.1945 6.21087C11.5631 6.21087 11.0513 6.7227 11.0513 7.35407C11.0513 7.98545 11.5631 8.49728 12.1945 8.49728ZM12.1945 9.25941C13.2468 9.25941 14.0998 8.40636 14.0998 7.35407C14.0998 6.30178 13.2468 5.44873 12.1945 5.44873C11.1422 5.44873 10.2891 6.30178 10.2891 7.35407C10.2891 8.40636 11.1422 9.25941 12.1945 9.25941Z" fill="#39ABFF"/>
<path fill-rule="evenodd" clip-rule="evenodd" d="M12.1945 13.5462C12.8258 13.5462 13.3377 13.0343 13.3377 12.403C13.3377 11.7716 12.8258 11.2598 12.1945 11.2598C11.5631 11.2598 11.0513 11.7716 11.0513 12.403C11.0513 13.0343 11.5631 13.5462 12.1945 13.5462ZM12.1945 14.3083C13.2468 14.3083 14.0998 13.4552 14.0998 12.403C14.0998 11.3507 13.2468 10.4976 12.1945 10.4976C11.1422 10.4976 10.2891 11.3507 10.2891 12.403C10.2891 13.4552 11.1422 14.3083 12.1945 14.3083Z" fill="#39ABFF"/>
<path fill-rule="evenodd" clip-rule="evenodd" d="M12.1945 18.6907C12.8258 18.6907 13.3377 18.1788 13.3377 17.5475C13.3377 16.9161 12.8258 16.4043 12.1945 16.4043C11.5631 16.4043 11.0513 16.9161 11.0513 17.5475C11.0513 18.1788 11.5631 18.6907 12.1945 18.6907ZM12.1945 19.4528C13.2468 19.4528 14.0998 18.5998 14.0998 17.5475C14.0998 16.4952 13.2468 15.6421 12.1945 15.6421C11.1422 15.6421 10.2891 16.4952 10.2891 17.5475C10.2891 18.5998 11.1422 19.4528 12.1945 19.4528Z" fill="#39ABFF"/>
<path fill-rule="evenodd" clip-rule="evenodd" d="M12.1945 23.7399C12.8258 23.7399 13.3377 23.2281 13.3377 22.5967C13.3377 21.9653 12.8258 21.4535 12.1945 21.4535C11.5631 21.4535 11.0513 21.9653 11.0513 22.5967C11.0513 23.2281 11.5631 23.7399 12.1945 23.7399ZM12.1945 24.5021C13.2468 24.5021 14.0998 23.649 14.0998 22.5967C14.0998 21.5444 13.2468 20.6914 12.1945 20.6914C11.1422 20.6914 10.2891 21.5444 10.2891 22.5967C10.2891 23.649 11.1422 24.5021 12.1945 24.5021Z" fill="#39ABFF"/>
<path fill-rule="evenodd" clip-rule="evenodd" d="M12.1945 28.7888C12.8258 28.7888 13.3377 28.2769 13.3377 27.6456C13.3377 27.0142 12.8258 26.5024 12.1945 26.5024C11.5631 26.5024 11.0513 27.0142 11.0513 27.6456C11.0513 28.2769 11.5631 28.7888 12.1945 28.7888ZM12.1945 29.5509C13.2468 29.5509 14.0998 28.6979 14.0998 27.6456C14.0998 26.5933 13.2468 25.7402 12.1945 25.7402C11.1422 25.7402 10.2891 26.5933 10.2891 27.6456C10.2891 28.6979 11.1422 29.5509 12.1945 29.5509Z" fill="#39ABFF"/>
<path fill-rule="evenodd" clip-rule="evenodd" d="M12.1945 33.8381C12.8258 33.8381 13.3377 33.3263 13.3377 32.6949C13.3377 32.0635 12.8258 31.5517 12.1945 31.5517C11.5631 31.5517 11.0513 32.0635 11.0513 32.6949C11.0513 33.3263 11.5631 33.8381 12.1945 33.8381ZM12.1945 34.6003C13.2468 34.6003 14.0998 33.7472 14.0998 32.6949C14.0998 31.6426 13.2468 30.7896 12.1945 30.7896C11.1422 30.7896 10.2891 31.6426 10.2891 32.6949C10.2891 33.7472 11.1422 34.6003 12.1945 34.6003Z" fill="#39ABFF"/>
<path fill-rule="evenodd" clip-rule="evenodd" d="M17.339 3.44796C17.9704 3.44796 18.4822 2.93613 18.4822 2.30475C18.4822 1.67338 17.9704 1.16155 17.339 1.16155C16.7076 1.16155 16.1958 1.67338 16.1958 2.30475C16.1958 2.93613 16.7076 3.44796 17.339 3.44796ZM17.339 4.21009C18.3913 4.21009 19.2443 3.35704 19.2443 2.30475C19.2443 1.25246 18.3913 0.399414 17.339 0.399414C16.2867 0.399414 15.4336 1.25246 15.4336 2.30475C15.4336 3.35704 16.2867 4.21009 17.339 4.21009Z" fill="#39ABFF"/>
<path fill-rule="evenodd" clip-rule="evenodd" d="M17.339 8.49728C17.9704 8.49728 18.4822 7.98545 18.4822 7.35407C18.4822 6.7227 17.9704 6.21087 17.339 6.21087C16.7076 6.21087 16.1958 6.7227 16.1958 7.35407C16.1958 7.98545 16.7076 8.49728 17.339 8.49728ZM17.339 9.25941C18.3913 9.25941 19.2443 8.40636 19.2443 7.35407C19.2443 6.30178 18.3913 5.44873 17.339 5.44873C16.2867 5.44873 15.4336 6.30178 15.4336 7.35407C15.4336 8.40636 16.2867 9.25941 17.339 9.25941Z" fill="#39ABFF"/>
<path fill-rule="evenodd" clip-rule="evenodd" d="M17.339 13.5462C17.9704 13.5462 18.4822 13.0343 18.4822 12.403C18.4822 11.7716 17.9704 11.2598 17.339 11.2598C16.7076 11.2598 16.1958 11.7716 16.1958 12.403C16.1958 13.0343 16.7076 13.5462 17.339 13.5462ZM17.339 14.3083C18.3913 14.3083 19.2443 13.4552 19.2443 12.403C19.2443 11.3507 18.3913 10.4976 17.339 10.4976C16.2867 10.4976 15.4336 11.3507 15.4336 12.403C15.4336 13.4552 16.2867 14.3083 17.339 14.3083Z" fill="#39ABFF"/>
<path fill-rule="evenodd" clip-rule="evenodd" d="M17.339 18.6907C17.9704 18.6907 18.4822 18.1788 18.4822 17.5475C18.4822 16.9161 17.9704 16.4043 17.339 16.4043C16.7076 16.4043 16.1958 16.9161 16.1958 17.5475C16.1958 18.1788 16.7076 18.6907 17.339 18.6907ZM17.339 19.4528C18.3913 19.4528 19.2443 18.5998 19.2443 17.5475C19.2443 16.4952 18.3913 15.6421 17.339 15.6421C16.2867 15.6421 15.4336 16.4952 15.4336 17.5475C15.4336 18.5998 16.2867 19.4528 17.339 19.4528Z" fill="#39ABFF"/>
<path fill-rule="evenodd" clip-rule="evenodd" d="M17.339 23.7399C17.9704 23.7399 18.4822 23.2281 18.4822 22.5967C18.4822 21.9653 17.9704 21.4535 17.339 21.4535C16.7076 21.4535 16.1958 21.9653 16.1958 22.5967C16.1958 23.2281 16.7076 23.7399 17.339 23.7399ZM17.339 24.5021C18.3913 24.5021 19.2443 23.649 19.2443 22.5967C19.2443 21.5444 18.3913 20.6914 17.339 20.6914C16.2867 20.6914 15.4336 21.5444 15.4336 22.5967C15.4336 23.649 16.2867 24.5021 17.339 24.5021Z" fill="#39ABFF"/>
<path fill-rule="evenodd" clip-rule="evenodd" d="M17.339 28.7888C17.9704 28.7888 18.4822 28.2769 18.4822 27.6456C18.4822 27.0142 17.9704 26.5024 17.339 26.5024C16.7076 26.5024 16.1958 27.0142 16.1958 27.6456C16.1958 28.2769 16.7076 28.7888 17.339 28.7888ZM17.339 29.5509C18.3913 29.5509 19.2443 28.6979 19.2443 27.6456C19.2443 26.5933 18.3913 25.7402 17.339 25.7402C16.2867 25.7402 15.4336 26.5933 15.4336 27.6456C15.4336 28.6979 16.2867 29.5509 17.339 29.5509Z" fill="#39ABFF"/>
<path fill-rule="evenodd" clip-rule="evenodd" d="M17.339 33.8381C17.9704 33.8381 18.4822 33.3263 18.4822 32.6949C18.4822 32.0635 17.9704 31.5517 17.339 31.5517C16.7076 31.5517 16.1958 32.0635 16.1958 32.6949C16.1958 33.3263 16.7076 33.8381 17.339 33.8381ZM17.339 34.6003C18.3913 34.6003 19.2443 33.7472 19.2443 32.6949C19.2443 31.6426 18.3913 30.7896 17.339 30.7896C16.2867 30.7896 15.4336 31.6426 15.4336 32.6949C15.4336 33.7472 16.2867 34.6003 17.339 34.6003Z" fill="#39ABFF"/>
<path fill-rule="evenodd" clip-rule="evenodd" d="M22.4834 3.44796C23.1148 3.44796 23.6266 2.93613 23.6266 2.30475C23.6266 1.67338 23.1148 1.16155 22.4834 1.16155C21.852 1.16155 21.3402 1.67338 21.3402 2.30475C21.3402 2.93613 21.852 3.44796 22.4834 3.44796ZM22.4834 4.21009C23.5357 4.21009 24.3887 3.35704 24.3887 2.30475C24.3887 1.25246 23.5357 0.399414 22.4834 0.399414C21.4311 0.399414 20.5781 1.25246 20.5781 2.30475C20.5781 3.35704 21.4311 4.21009 22.4834 4.21009Z" fill="#39ABFF"/>
<path fill-rule="evenodd" clip-rule="evenodd" d="M22.4834 8.49728C23.1148 8.49728 23.6266 7.98545 23.6266 7.35407C23.6266 6.7227 23.1148 6.21087 22.4834 6.21087C21.852 6.21087 21.3402 6.7227 21.3402 7.35407C21.3402 7.98545 21.852 8.49728 22.4834 8.49728ZM22.4834 9.25941C23.5357 9.25941 24.3887 8.40636 24.3887 7.35407C24.3887 6.30178 23.5357 5.44873 22.4834 5.44873C21.4311 5.44873 20.5781 6.30178 20.5781 7.35407C20.5781 8.40636 21.4311 9.25941 22.4834 9.25941Z" fill="#39ABFF"/>
<path fill-rule="evenodd" clip-rule="evenodd" d="M22.4834 13.5462C23.1148 13.5462 23.6266 13.0343 23.6266 12.403C23.6266 11.7716 23.1148 11.2598 22.4834 11.2598C21.852 11.2598 21.3402 11.7716 21.3402 12.403C21.3402 13.0343 21.852 13.5462 22.4834 13.5462ZM22.4834 14.3083C23.5357 14.3083 24.3887 13.4552 24.3887 12.403C24.3887 11.3507 23.5357 10.4976 22.4834 10.4976C21.4311 10.4976 20.5781 11.3507 20.5781 12.403C20.5781 13.4552 21.4311 14.3083 22.4834 14.3083Z" fill="#39ABFF"/>
<path fill-rule="evenodd" clip-rule="evenodd" d="M22.4834 18.6907C23.1148 18.6907 23.6266 18.1788 23.6266 17.5475C23.6266 16.9161 23.1148 16.4043 22.4834 16.4043C21.852 16.4043 21.3402 16.9161 21.3402 17.5475C21.3402 18.1788 21.852 18.6907 22.4834 18.6907ZM22.4834 19.4528C23.5357 19.4528 24.3887 18.5998 24.3887 17.5475C24.3887 16.4952 23.5357 15.6421 22.4834 15.6421C21.4311 15.6421 20.5781 16.4952 20.5781 17.5475C20.5781 18.5998 21.4311 19.4528 22.4834 19.4528Z" fill="#39ABFF"/>
<path fill-rule="evenodd" clip-rule="evenodd" d="M22.4834 23.7399C23.1148 23.7399 23.6266 23.2281 23.6266 22.5967C23.6266 21.9653 23.1148 21.4535 22.4834 21.4535C21.852 21.4535 21.3402 21.9653 21.3402 22.5967C21.3402 23.2281 21.852 23.7399 22.4834 23.7399ZM22.4834 24.5021C23.5357 24.5021 24.3887 23.649 24.3887 22.5967C24.3887 21.5444 23.5357 20.6914 22.4834 20.6914C21.4311 20.6914 20.5781 21.5444 20.5781 22.5967C20.5781 23.649 21.4311 24.5021 22.4834 24.5021Z" fill="#39ABFF"/>
<path fill-rule="evenodd" clip-rule="evenodd" d="M22.4834 28.7888C23.1148 28.7888 23.6266 28.2769 23.6266 27.6456C23.6266 27.0142 23.1148 26.5024 22.4834 26.5024C21.852 26.5024 21.3402 27.0142 21.3402 27.6456C21.3402 28.2769 21.852 28.7888 22.4834 28.7888ZM22.4834 29.5509C23.5357 29.5509 24.3887 28.6979 24.3887 27.6456C24.3887 26.5933 23.5357 25.7402 22.4834 25.7402C21.4311 25.7402 20.5781 26.5933 20.5781 27.6456C20.5781 28.6979 21.4311 29.5509 22.4834 29.5509Z" fill="#39ABFF"/>
<path fill-rule="evenodd" clip-rule="evenodd" d="M22.4834 33.8381C23.1148 33.8381 23.6266 33.3263 23.6266 32.6949C23.6266 32.0635 23.1148 31.5517 22.4834 31.5517C21.852 31.5517 21.3402 32.0635 21.3402 32.6949C21.3402 33.3263 21.852 33.8381 22.4834 33.8381ZM22.4834 34.6003C23.5357 34.6003 24.3887 33.7472 24.3887 32.6949C24.3887 31.6426 23.5357 30.7896 22.4834 30.7896C21.4311 30.7896 20.5781 31.6426 20.5781 32.6949C20.5781 33.7472 21.4311 34.6003 22.4834 34.6003Z" fill="#39ABFF"/>
<path fill-rule="evenodd" clip-rule="evenodd" d="M27.628 3.44796C28.2594 3.44796 28.7712 2.93613 28.7712 2.30475C28.7712 1.67338 28.2594 1.16155 27.628 1.16155C26.9966 1.16155 26.4848 1.67338 26.4848 2.30475C26.4848 2.93613 26.9966 3.44796 27.628 3.44796ZM27.628 4.21009C28.6803 4.21009 29.5334 3.35704 29.5334 2.30475C29.5334 1.25246 28.6803 0.399414 27.628 0.399414C26.5757 0.399414 25.7227 1.25246 25.7227 2.30475C25.7227 3.35704 26.5757 4.21009 27.628 4.21009Z" fill="#39ABFF"/>
<path fill-rule="evenodd" clip-rule="evenodd" d="M27.628 8.49728C28.2594 8.49728 28.7712 7.98545 28.7712 7.35407C28.7712 6.7227 28.2594 6.21087 27.628 6.21087C26.9966 6.21087 26.4848 6.7227 26.4848 7.35407C26.4848 7.98545 26.9966 8.49728 27.628 8.49728ZM27.628 9.25941C28.6803 9.25941 29.5334 8.40636 29.5334 7.35407C29.5334 6.30178 28.6803 5.44873 27.628 5.44873C26.5757 5.44873 25.7227 6.30178 25.7227 7.35407C25.7227 8.40636 26.5757 9.25941 27.628 9.25941Z" fill="#39ABFF"/>
<path fill-rule="evenodd" clip-rule="evenodd" d="M27.628 13.5462C28.2594 13.5462 28.7712 13.0343 28.7712 12.403C28.7712 11.7716 28.2594 11.2598 27.628 11.2598C26.9966 11.2598 26.4848 11.7716 26.4848 12.403C26.4848 13.0343 26.9966 13.5462 27.628 13.5462ZM27.628 14.3083C28.6803 14.3083 29.5334 13.4552 29.5334 12.403C29.5334 11.3507 28.6803 10.4976 27.628 10.4976C26.5757 10.4976 25.7227 11.3507 25.7227 12.403C25.7227 13.4552 26.5757 14.3083 27.628 14.3083Z" fill="#39ABFF"/>
<path fill-rule="evenodd" clip-rule="evenodd" d="M27.628 18.6907C28.2594 18.6907 28.7712 18.1788 28.7712 17.5475C28.7712 16.9161 28.2594 16.4043 27.628 16.4043C26.9966 16.4043 26.4848 16.9161 26.4848 17.5475C26.4848 18.1788 26.9966 18.6907 27.628 18.6907ZM27.628 19.4528C28.6803 19.4528 29.5334 18.5998 29.5334 17.5475C29.5334 16.4952 28.6803 15.6421 27.628 15.6421C26.5757 15.6421 25.7227 16.4952 25.7227 17.5475C25.7227 18.5998 26.5757 19.4528 27.628 19.4528Z" fill="#39ABFF"/>
<path fill-rule="evenodd" clip-rule="evenodd" d="M27.628 23.7399C28.2594 23.7399 28.7712 23.2281 28.7712 22.5967C28.7712 21.9653 28.2594 21.4535 27.628 21.4535C26.9966 21.4535 26.4848 21.9653 26.4848 22.5967C26.4848 23.2281 26.9966 23.7399 27.628 23.7399ZM27.628 24.5021C28.6803 24.5021 29.5334 23.649 29.5334 22.5967C29.5334 21.5444 28.6803 20.6914 27.628 20.6914C26.5757 20.6914 25.7227 21.5444 25.7227 22.5967C25.7227 23.649 26.5757 24.5021 27.628 24.5021Z" fill="#39ABFF"/>
<path fill-rule="evenodd" clip-rule="evenodd" d="M27.628 28.7888C28.2594 28.7888 28.7712 28.2769 28.7712 27.6456C28.7712 27.0142 28.2594 26.5024 27.628 26.5024C26.9966 26.5024 26.4848 27.0142 26.4848 27.6456C26.4848 28.2769 26.9966 28.7888 27.628 28.7888ZM27.628 29.5509C28.6803 29.5509 29.5334 28.6979 29.5334 27.6456C29.5334 26.5933 28.6803 25.7402 27.628 25.7402C26.5757 25.7402 25.7227 26.5933 25.7227 27.6456C25.7227 28.6979 26.5757 29.5509 27.628 29.5509Z" fill="#39ABFF"/>
<path fill-rule="evenodd" clip-rule="evenodd" d="M27.628 33.8381C28.2594 33.8381 28.7712 33.3263 28.7712 32.6949C28.7712 32.0635 28.2594 31.5517 27.628 31.5517C26.9966 31.5517 26.4848 32.0635 26.4848 32.6949C26.4848 33.3263 26.9966 33.8381 27.628 33.8381ZM27.628 34.6003C28.6803 34.6003 29.5334 33.7472 29.5334 32.6949C29.5334 31.6426 28.6803 30.7896 27.628 30.7896C26.5757 30.7896 25.7227 31.6426 25.7227 32.6949C25.7227 33.7472 26.5757 34.6003 27.628 34.6003Z" fill="#39ABFF"/>
<path fill-rule="evenodd" clip-rule="evenodd" d="M32.7725 3.44796C33.4039 3.44796 33.9157 2.93613 33.9157 2.30475C33.9157 1.67338 33.4039 1.16155 32.7725 1.16155C32.1412 1.16155 31.6293 1.67338 31.6293 2.30475C31.6293 2.93613 32.1412 3.44796 32.7725 3.44796ZM32.7725 4.21009C33.8248 4.21009 34.6779 3.35704 34.6779 2.30475C34.6779 1.25246 33.8248 0.399414 32.7725 0.399414C31.7202 0.399414 30.8672 1.25246 30.8672 2.30475C30.8672 3.35704 31.7202 4.21009 32.7725 4.21009Z" fill="#39ABFF"/>
<path fill-rule="evenodd" clip-rule="evenodd" d="M32.7725 8.49728C33.4039 8.49728 33.9157 7.98545 33.9157 7.35407C33.9157 6.7227 33.4039 6.21087 32.7725 6.21087C32.1412 6.21087 31.6293 6.7227 31.6293 7.35407C31.6293 7.98545 32.1412 8.49728 32.7725 8.49728ZM32.7725 9.25941C33.8248 9.25941 34.6779 8.40636 34.6779 7.35407C34.6779 6.30178 33.8248 5.44873 32.7725 5.44873C31.7202 5.44873 30.8672 6.30178 30.8672 7.35407C30.8672 8.40636 31.7202 9.25941 32.7725 9.25941Z" fill="#39ABFF"/>
<path fill-rule="evenodd" clip-rule="evenodd" d="M32.7725 13.5462C33.4039 13.5462 33.9157 13.0343 33.9157 12.403C33.9157 11.7716 33.4039 11.2598 32.7725 11.2598C32.1412 11.2598 31.6293 11.7716 31.6293 12.403C31.6293 13.0343 32.1412 13.5462 32.7725 13.5462ZM32.7725 14.3083C33.8248 14.3083 34.6779 13.4552 34.6779 12.403C34.6779 11.3507 33.8248 10.4976 32.7725 10.4976C31.7202 10.4976 30.8672 11.3507 30.8672 12.403C30.8672 13.4552 31.7202 14.3083 32.7725 14.3083Z" fill="#39ABFF"/>
<path fill-rule="evenodd" clip-rule="evenodd" d="M32.7725 18.5954C33.4039 18.5954 33.9157 18.0836 33.9157 17.4522C33.9157 16.8208 33.4039 16.309 32.7725 16.309C32.1412 16.309 31.6293 16.8208 31.6293 17.4522C31.6293 18.0836 32.1412 18.5954 32.7725 18.5954ZM32.7725 19.3575C33.8248 19.3575 34.6779 18.5045 34.6779 17.4522C34.6779 16.3999 33.8248 15.5469 32.7725 15.5469C31.7202 15.5469 30.8672 16.3999 30.8672 17.4522C30.8672 18.5045 31.7202 19.3575 32.7725 19.3575Z" fill="#39ABFF"/>
<path fill-rule="evenodd" clip-rule="evenodd" d="M32.7725 23.6448C33.4039 23.6448 33.9157 23.1329 33.9157 22.5016C33.9157 21.8702 33.4039 21.3583 32.7725 21.3583C32.1412 21.3583 31.6293 21.8702 31.6293 22.5016C31.6293 23.1329 32.1412 23.6448 32.7725 23.6448ZM32.7725 24.4069C33.8248 24.4069 34.6779 23.5538 34.6779 22.5016C34.6779 21.4493 33.8248 20.5962 32.7725 20.5962C31.7202 20.5962 30.8672 21.4493 30.8672 22.5016C30.8672 23.5538 31.7202 24.4069 32.7725 24.4069Z" fill="#39ABFF"/>
<path fill-rule="evenodd" clip-rule="evenodd" d="M32.7725 28.6935C33.4039 28.6935 33.9157 28.1817 33.9157 27.5503C33.9157 26.9189 33.4039 26.4071 32.7725 26.4071C32.1412 26.4071 31.6293 26.9189 31.6293 27.5503C31.6293 28.1817 32.1412 28.6935 32.7725 28.6935ZM32.7725 29.4556C33.8248 29.4556 34.6779 28.6026 34.6779 27.5503C34.6779 26.498 33.8248 25.645 32.7725 25.645C31.7202 25.645 30.8672 26.498 30.8672 27.5503C30.8672 28.6026 31.7202 29.4556 32.7725 29.4556Z" fill="#39ABFF"/>
<path fill-rule="evenodd" clip-rule="evenodd" d="M32.7725 33.7429C33.4039 33.7429 33.9157 33.231 33.9157 32.5997C33.9157 31.9683 33.4039 31.4564 32.7725 31.4564C32.1412 31.4564 31.6293 31.9683 31.6293 32.5997C31.6293 33.231 32.1412 33.7429 32.7725 33.7429ZM32.7725 34.505C33.8248 34.505 34.6779 33.6519 34.6779 32.5997C34.6779 31.5474 33.8248 30.6943 32.7725 30.6943C31.7202 30.6943 30.8672 31.5474 30.8672 32.5997C30.8672 33.6519 31.7202 34.505 32.7725 34.505Z" fill="#39ABFF"/>
<path fill-rule="evenodd" clip-rule="evenodd" d="M6.57422 6.02024V3.8291H7.33636V6.02024H6.57422Z" fill="#39ABFF"/>
<path fill-rule="evenodd" clip-rule="evenodd" d="M1.52344 10.9738V8.78271H2.28558V10.9738H1.52344Z" fill="#39ABFF"/>
<path fill-rule="evenodd" clip-rule="evenodd" d="M16.957 10.9738V8.78271H17.7192V10.9738H16.957Z" fill="#39ABFF"/>
<path fill-rule="evenodd" clip-rule="evenodd" d="M16.957 21.0724V18.8813H17.7192V21.0724H16.957Z" fill="#39ABFF"/>
<path fill-rule="evenodd" clip-rule="evenodd" d="M27.2461 26.2166V24.0254H28.0082V26.2166H27.2461Z" fill="#39ABFF"/>
<path fill-rule="evenodd" clip-rule="evenodd" d="M32.3906 31.0755V28.8843H33.1527V31.0755H32.3906Z" fill="#39ABFF"/>
<path fill-rule="evenodd" clip-rule="evenodd" d="M31.4072 6.38467L28.6445 3.62193L29.1834 3.08301L31.9461 5.84576L31.4072 6.38467Z" fill="#39ABFF"/>
<path fill-rule="evenodd" clip-rule="evenodd" d="M26.3096 11.5292L23.5469 8.76645L24.0858 8.22754L26.8485 10.9903L26.3096 11.5292Z" fill="#39ABFF"/>
<path fill-rule="evenodd" clip-rule="evenodd" d="M29.1346 11.5292L31.8974 8.76645L31.3585 8.22754L28.5957 10.9903L29.1346 11.5292Z" fill="#39ABFF"/>
<path fill-rule="evenodd" clip-rule="evenodd" d="M29.1346 21.6278L31.8974 18.8651L31.3585 18.3262L28.5957 21.0889L29.1346 21.6278Z" fill="#39ABFF"/>
<path fill-rule="evenodd" clip-rule="evenodd" d="M8.46274 16.5786L11.2255 13.8158L10.6865 13.2769L7.92383 16.0396L8.46274 16.5786Z" fill="#39ABFF"/>
<path fill-rule="evenodd" clip-rule="evenodd" d="M24.0858 31.8212L26.8485 29.0584L26.3096 28.5195L23.5469 31.2823L24.0858 31.8212Z" fill="#39ABFF"/>
<path fill-rule="evenodd" clip-rule="evenodd" d="M3.2225 31.6307L5.98524 28.868L5.44633 28.3291L2.68359 31.0918L3.2225 31.6307Z" fill="#39ABFF"/>
<path fill-rule="evenodd" clip-rule="evenodd" d="M16.0205 16.5786L13.2578 13.8158L13.7967 13.2769L16.5594 16.0396L16.0205 16.5786Z" fill="#39ABFF"/>
<path fill-rule="evenodd" clip-rule="evenodd" d="M10.9717 31.6307L8.20898 28.868L8.74789 28.3291L11.5107 31.0918L10.9717 31.6307Z" fill="#39ABFF"/>
<path fill-rule="evenodd" clip-rule="evenodd" d="M1.52344 21.0724V18.8813H2.28558V21.0724H1.52344Z" fill="#39ABFF"/>
<path fill-rule="evenodd" clip-rule="evenodd" d="M20.9588 7.73479H19.0059V6.97266H20.9588V7.73479Z" fill="#39ABFF"/>
<path fill-rule="evenodd" clip-rule="evenodd" d="M15.9569 12.7841H14.0039V12.022H15.9569V12.7841Z" fill="#39ABFF"/>
<path fill-rule="evenodd" clip-rule="evenodd" d="M10.6904 2.71527H8.54688V1.95312H10.6904V2.71527Z" fill="#39ABFF"/>
<path fill-rule="evenodd" clip-rule="evenodd" d="M21.0057 22.9779H19.0527V22.2158H21.0057V22.9779Z" fill="#39ABFF"/>
</g>
<defs>
<clipPath id="clip0_385_1191">
<rect width="181" height="35" fill="white"/>
</clipPath>
</defs>
</svg>
